# xmcd CD database file
#
# Track frame offsets:
#	150
#	22933
#	43866
#	69582
#	82986
#	115395
#	137750
#	153777
#	169681
#	193779
#	215318
#
# Disc length: 3117 seconds
#
# Revision: 0
# Processed by: cddbd v1.5.2PL0 Copyright (c) Steve Scherf et al.
# Submitted via: CDex 1.81
#
DISCID=8e0c2b0b
DTITLE=Shinya Fukumori Trio - For 2 Akis
DYEAR=2018
DGENRE=Jazz
TTITLE0=Hoshi Meguri No Uta
TTITLE1=Silent Chaos
TTITLE2=Ai San San
TTITLE3=For 2 Akis
TTITLE4=The Light Suite 
TTITLE5=No Goodbye
TTITLE6=Spectacular
TTITLE7=Mangetsu No Yube
TTITLE8=Emeraude
TTITLE9=When The Day Is Done
TTITLE10=Hoshi Meguri No Uta (var.)
EXTD=YEAR: 2018
EXTT0=
EXTT1=
EXTT2=
EXTT3=
EXTT4=
EXTT5=
EXTT6=
EXTT7=
EXTT8=
EXTT9=
EXTT10=
PLAYORDER=
